<?xml version="1.0" encoding="UTF-8"?> <!-- Generator: Adobe Illustrator 23.0.3, SVG Export Plug-In . SVG Version: 6.00 Build 0) --> <svg xmlns="http://www.w3.org/2000/svg" xmlns:xlink="http://www.w3.org/1999/xlink" x="0px" y="0px" viewBox="0 0 993 777" style="enable-background:new 0 0 993 777;" xml:space="preserve"> <style type="text/css"> .st0{fill:#E0EBFB;} .st1{clip-path:url(#SVGID_2_);} .st2{fill:#EDF3FF;} .st3{opacity:0.5;fill:#EDF3FF;} .st4{clip-path:url(#SVGID_6_);fill:#BCD2FF;} .st5{clip-path:url(#SVGID_12_);fill:#BCD2FF;} .st6{clip-path:url(#SVGID_18_);fill:#BCD2FF;} .st7{fill:#BCD2FF;} .st8{fill:url(#SVGID_21_);} .st9{fill:url(#SVGID_22_);} .st10{fill:url(#SVGID_23_);} .st11{fill:#8FB2FF;} .st12{fill:url(#SVGID_24_);} .st13{fill:url(#SVGID_25_);} .st14{fill:#9ABFFA;} .st15{fill:#8AAEFF;} .st16{fill:#286CA5;} .st17{enable-background:new ;} .st18{fill:#124B79;} .st19{fill:#EDEFFD;} .st20{fill:#87AAF9;} .st21{fill:#FFFFFF;} .st22{fill:#0076BF;} .st23{fill:#D0E1FB;} .st24{fill:#FFD5BE;} .st25{fill:url(#SVGID_26_);} .st26{fill:url(#SVGID_27_);} .st27{fill:url(#SVGID_28_);} .st28{fill:url(#SVGID_29_);} .st29{fill:url(#SVGID_30_);} .st30{fill:url(#SVGID_31_);} .st31{fill:url(#SVGID_32_);} .st32{fill:url(#SVGID_33_);} </style> <g id="bg"> <g> <path class="st0" d="M81.1,368.2c0,0-28.3-85,85.9-150.5S252.8,61.9,319.2,28.3s91.3,2.2,195.8,9.3s174.3,12,202.6-21.7 c28.3-33.6,191.2-6.2,184.1,132.8s-64.6,173.5-21.2,262c43.4,88.5-41.6,263.8-97.4,283.3c-55.8,19.5-379.8,23.9-448.8-65.5 S71.3,599.3,81.1,368.2z"></path> <g> <defs> <path id="SVGID_1_" d="M81.1,368.2c0,0-28.3-85,85.9-150.5S252.8,61.9,319.2,28.3s91.3,2.2,195.8,9.3s174.3,12,202.6-21.7 c28.3-33.6,191.2-6.2,184.1,132.8s-64.6,173.5-21.2,262c43.4,88.5-41.6,263.8-97.4,283.3c-55.8,19.5-379.8,23.9-448.8-65.5 S71.3,599.3,81.1,368.2z"></path> </defs> <clipPath id="SVGID_2_"> <use xlink:href="#SVGID_1_" style="overflow:visible;"></use> </clipPath> <g class="st1"> <polygon class="st2" points="77.8,752.7 -42.9,688.7 342.6,-19 491.7,-8.3 "></polygon> <polygon class="st2" points="725.8,772 603.6,729 895.8,215.6 1016.6,279.7 "></polygon> <polygon class="st3" points="563.5,733.7 441.3,690.8 846.8,-35.6 967.6,28.4 "></polygon> </g> </g> </g> </g> <g id="leaves"> <g> <g> <g> <g> <defs> <path id="SVGID_3_" d="M242.8,394c0,0-12.3-42.1,1.8-69.1c14.1-26.9,54.5-70.7,59.8-85.9c0,0-24.6,62.3-24.6,77.5 C279.7,331.7,267.4,368.7,242.8,394z"></path> </defs> <clipPath id="SVGID_4_"> <use xlink:href="#SVGID_3_" style="overflow:visible;"></use> </clipPath> </g> </g> <g> <g> <defs> <path id="SVGID_5_" d="M242.8,394c0,0-12.3-42.1,1.8-69.1c14.1-26.9,54.5-70.7,59.8-85.9c0,0-24.6,62.3-24.6,77.5 C279.7,331.7,267.4,368.7,242.8,394z"></path> </defs> <use xlink:href="#SVGID_5_" style="overflow:visible;fill:#BCD2FF;"></use> <clipPath id="SVGID_6_"> <use xlink:href="#SVGID_5_" style="overflow:visible;"></use> </clipPath> <rect x="230.5" y="239" class="st4" width="7.3" height="155"></rect> <rect x="237.8" y="239" class="st4" width="0.8" height="155"></rect> <rect x="238.6" y="239" class="st4" width="0.8" height="155"></rect> <rect x="239.5" y="239" class="st4" width="0.8" height="155"></rect> <rect x="240.3" y="239" class="st4" width="0.8" height="155"></rect> <rect x="241.1" y="239" class="st4" width="0.8" height="155"></rect> <rect x="241.9" y="239" class="st4" width="0.8" height="155"></rect> <rect x="242.7" y="239" class="st4" width="0.8" height="155"></rect> <rect x="243.5" y="239" class="st4" width="0.8" height="155"></rect> <rect x="244.3" y="239" class="st4" width="0.8" height="155"></rect> <rect x="245.1" y="239" class="st4" width="0.8" height="155"></rect> <rect x="245.9" y="239" class="st4" width="0.8" height="155"></rect> <rect x="246.8" y="239" class="st4" width="0.8" height="155"></rect> <rect x="247.6" y="239" class="st4" width="0.8" height="155"></rect> <rect x="248.4" y="239" class="st4" width="0.8" height="155"></rect> <rect x="249.2" y="239" class="st4" width="0.8" height="155"></rect> <rect x="250" y="239" class="st4" width="0.8" height="155"></rect> <rect x="250.8" y="239" class="st4" width="0.8" height="155"></rect> <rect x="251.6" y="239" class="st4" width="0.8" height="155"></rect> <rect x="252.4" y="239" class="st4" width="0.8" height="155"></rect> <rect x="253.2" y="239" class="st4" width="0.8" height="155"></rect> <rect x="254.1" y="239" class="st4" width="0.8" height="155"></rect> <rect x="254.9" y="239" class="st4" width="0.8" height="155"></rect> <rect x="255.7" y="239" class="st4" width="0.8" height="155"></rect> <rect x="256.5" y="239" class="st4" width="0.8" height="155"></rect> <rect x="257.3" y="239" class="st4" width="0.8" height="155"></rect> <rect x="258.1" y="239" class="st4" width="0.8" height="155"></rect> <rect x="258.9" y="239" class="st4" width="0.8" height="155"></rect> <rect x="259.7" y="239" class="st4" width="0.8" height="155"></rect> <rect x="260.6" y="239" class="st4" width="0.8" height="155"></rect> <rect x="261.4" y="239" class="st4" width="0.8" height="155"></rect> <rect x="262.2" y="239" class="st4" width="0.8" height="155"></rect> <rect x="263" y="239" class="st4" width="0.8" height="155"></rect> <rect x="263.8" y="239" class="st4" width="0.8" height="155"></rect> <rect x="264.6" y="239" class="st4" width="0.8" height="155"></rect> <rect x="265.4" y="239" class="st4" width="0.8" height="155"></rect> <rect x="266.2" y="239" class="st4" width="0.8" height="155"></rect> <rect x="267" y="239" class="st4" width="0.8" height="155"></rect> <rect x="267.9" y="239" class="st4" width="0.8" height="155"></rect> <rect x="268.7" y="239" class="st4" width="0.8" height="155"></rect> <rect x="269.5" y="239" class="st4" width="0.8" height="155"></rect> <rect x="270.3" y="239" class="st4" width="0.8" height="155"></rect> <rect x="271.1" y="239" class="st4" width="0.8" height="155"></rect> <rect x="271.9" y="239" class="st4" width="0.8" height="155"></rect> <rect x="272.7" y="239" class="st4" width="0.8" height="155"></rect> <rect x="273.5" y="239" class="st4" width="0.8" height="155"></rect> <rect x="274.3" y="239" class="st4" width="0.8" height="155"></rect> <rect x="275.2" y="239" class="st4" width="0.8" height="155"></rect> <rect x="276" y="239" class="st4" width="0.8" height="155"></rect> <rect x="276.8" y="239" class="st4" width="0.8" height="155"></rect> <rect x="277.6" y="239" class="st4" width="0.8" height="155"></rect> <rect x="278.4" y="239" class="st4" width="0.8" height="155"></rect> <rect x="279.2" y="239" class="st4" width="0.8" height="155"></rect> <rect x="280" y="239" class="st4" width="0.8" height="155"></rect> <rect x="280.8" y="239" class="st4" width="0.8" height="155"></rect> <rect x="281.6" y="239" class="st4" width="0.8" height="155"></rect> <rect x="282.5" y="239" class="st4" width="0.8" height="155"></rect> <rect x="283.3" y="239" class="st4" width="0.8" height="155"></rect> <rect x="284.1" y="239" class="st4" width="0.8" height="155"></rect> <rect x="284.9" y="239" class="st4" width="0.8" height="155"></rect> <rect x="285.7" y="239" class="st4" width="0.8" height="155"></rect> <rect x="286.5" y="239" class="st4" width="0.8" height="155"></rect> <rect x="287.3" y="239" class="st4" width="0.8" height="155"></rect> <rect x="288.1" y="239" class="st4" width="0.8" height="155"></rect> <rect x="288.9" y="239" class="st4" width="0.8" height="155"></rect> <rect x="289.8" y="239" class="st4" width="0.8" height="155"></rect> <rect x="290.6" y="239" class="st4" width="0.8" height="155"></rect> <rect x="291.4" y="239" class="st4" width="0.8" height="155"></rect> <rect x="292.2" y="239" class="st4" width="0.8" height="155"></rect> <rect x="293" y="239" class="st4" width="0.8" height="155"></rect> <rect x="293.8" y="239" class="st4" width="0.8" height="155"></rect> <rect x="294.6" y="239" class="st4" width="0.8" height="155"></rect> <rect x="295.4" y="239" class="st4" width="0.8" height="155"></rect> <rect x="296.2" y="239" class="st4" width="0.8" height="155"></rect> <rect x="297.1" y="239" class="st4" width="0.8" height="155"></rect> <rect x="297.9" y="239" class="st4" width="0.8" height="155"></rect> <rect x="298.7" y="239" class="st4" width="0.8" height="155"></rect> <rect x="299.5" y="239" class="st4" width="0.8" height="155"></rect> <rect x="300.3" y="239" class="st4" width="0.8" height="155"></rect> <rect x="301.1" y="239" class="st4" width="0.8" height="155"></rect> <rect x="301.9" y="239" class="st4" width="0.8" height="155"></rect> <rect x="302.7" y="239" class="st4" width="0.8" height="155"></rect> <rect x="303.5" y="239" class="st4" width="0.8" height="155"></rect> <rect x="304.4" y="239" class="st4" width="0" height="155"></rect> </g> </g> <g> <g> <defs> <path id="SVGID_7_" d="M242.8,394c0,0-12.3-42.1,1.8-69.1c14.1-26.9,54.5-70.7,59.8-85.9c0,0-24.6,62.3-24.6,77.5 C279.7,331.7,267.4,368.7,242.8,394z"></path> </defs> <clipPath id="SVGID_8_"> <use xlink:href="#SVGID_7_" style="overflow:visible;"></use> </clipPath> </g> </g> </g> <g> <g> <g> <defs> <path id="SVGID_9_" d="M221.7,385.6c0,0-24.6-37.1-28.1-70.7c-3.5-33.7,10.5-74.1,10.5-104.4s-15.8-47.2-15.8-47.2 s42.2,23.6,47.5,52.2C241.1,244.1,244.6,331.7,221.7,385.6z"></path> </defs> <clipPath id="SVGID_10_"> <use xlink:href="#SVGID_9_" style="overflow:visible;"></use> </clipPath> </g> </g> <g> <g> <defs> <path id="SVGID_11_" d="M221.7,385.6c0,0-24.6-37.1-28.1-70.7c-3.5-33.7,10.5-74.1,10.5-104.4s-15.8-47.2-15.8-47.2 s42.2,23.6,47.5,52.2C241.1,244.1,244.6,331.7,221.7,385.6z"></path> </defs> <use xlink:href="#SVGID_11_" style="overflow:visible;fill:#BCD2FF;"></use> <clipPath id="SVGID_12_"> <use xlink:href="#SVGID_11_" style="overflow:visible;"></use> </clipPath> <path class="st5" d="M188.3,163.2v222.3V163.2z"></path> <rect x="188.3" y="163.2" class="st5" width="0.6" height="222.3"></rect> <rect x="188.9" y="163.2" class="st5" width="0.6" height="222.3"></rect> <rect x="189.6" y="163.2" class="st5" width="0.6" height="222.3"></rect> <rect x="190.2" y="163.2" class="st5" width="0.6" height="222.3"></rect> <rect x="190.8" y="163.2" class="st5" width="0.6" height="222.3"></rect> <rect x="191.4" y="163.2" class="st5" width="0.6" height="222.3"></rect> <rect x="192.1" y="163.2" class="st5" width="0.6" height="222.3"></rect> <rect x="192.7" y="163.2" class="st5" width="0.6" height="222.3"></rect> <rect x="193.3" y="163.2" class="st5" width="0.6" height="222.3"></rect> <rect x="194" y="163.2" class="st5" width="0.6" height="222.3"></rect> <rect x="194.6" y="163.2" class="st5" width="0.6" height="222.3"></rect> <rect x="195.2" y="163.2" class="st5" width="0.6" height="222.3"></rect> <rect x="195.8" y="163.2" class="st5" width="0.6" height="222.3"></rect> <rect x="196.5" y="163.2" class="st5" width="0.6" height="222.3"></rect> <rect x="197.1" y="163.2" class="st5" width="0.6" height="222.3"></rect> <rect x="197.7" y="163.2" class="st5" width="0.6" height="222.3"></rect> <rect x="198.3" y="163.2" class="st5" width="0.6" height="222.3"></rect> <rect x="199" y="163.2" class="st5" width="0.6" height="222.3"></rect> <rect x="199.6" y="163.2" class="st5" width="0.6" height="222.3"></rect> <rect x="200.2" y="163.2" class="st5" width="0.6" height="222.3"></rect> <rect x="200.8" y="163.2" class="st5" width="0.6" height="222.3"></rect> <rect x="201.5" y="163.2" class="st5" width="0.6" height="222.3"></rect> <rect x="202.1" y="163.2" class="st5" width="0.6" height="222.3"></rect> <rect x="202.7" y="163.2" class="st5" width="0.6" height="222.3"></rect> <rect x="203.4" y="163.2" class="st5" width="0.6" height="222.3"></rect> <rect x="204" y="163.2" class="st5" width="0.6" height="222.3"></rect> <rect x="204.6" y="163.2" class="st5" width="0.6" height="222.3"></rect> <rect x="205.2" y="163.2" class="st5" width="0.6" height="222.3"></rect> <rect x="205.9" y="163.2" class="st5" width="0.6" height="222.3"></rect> <rect x="206.5" y="163.2" class="st5" width="0.6" height="222.3"></rect> <rect x="207.1" y="163.2" class="st5" width="0.6" height="222.3"></rect> <rect x="207.7" y="163.2" class="st5" width="0.6" height="222.3"></rect> <rect x="208.4" y="163.2" class="st5" width="0.6" height="222.3"></rect> <rect x="209" y="163.2" class="st5" width="0.6" height="222.3"></rect> <rect x="209.6" y="163.2" class="st5" width="0.6" height="222.3"></rect> <rect x="210.2" y="163.2" class="st5" width="0.6" height="222.3"></rect> <rect x="210.9" y="163.2" class="st5" width="0.6" height="222.3"></rect> <rect x="211.5" y="163.2" class="st5" width="0.6" height="222.3"></rect> <rect x="212.1" y="163.2" class="st5" width="0.6" height="222.3"></rect> <rect x="212.8" y="163.2" class="st5" width="0.6" height="222.3"></rect> <rect x="213.4" y="163.2" class="st5" width="0.6" height="222.3"></rect> <rect x="214" y="163.2" class="st5" width="0.6" height="222.3"></rect> <rect x="214.6" y="163.2" class="st5" width="0.6" height="222.3"></rect> <rect x="215.3" y="163.2" class="st5" width="0.6" height="222.3"></rect> <rect x="215.9" y="163.2" class="st5" width="0.6" height="222.3"></rect> <rect x="216.5" y="163.2" class="st5" width="0.6" height="222.3"></rect> <rect x="217.1" y="163.2" class="st5" width="0.6" height="222.3"></rect> <rect x="217.8" y="163.2" class="st5" width="0.6" height="222.3"></rect> <rect x="218.4" y="163.2" class="st5" width="0.6" height="222.3"></rect> <rect x="219" y="163.2" class="st5" width="0.6" height="222.3"></rect> <rect x="219.6" y="163.2" class="st5" width="0.6" height="222.3"></rect> <rect x="220.3" y="163.2" class="st5" width="0.6" height="222.3"></rect> <rect x="220.9" y="163.2" class="st5" width="0.6" height="222.3"></rect> <rect x="221.5" y="163.2" class="st5" width="0.6" height="222.3"></rect> <rect x="222.2" y="163.2" class="st5" width="0.6" height="222.3"></rect> <rect x="222.8" y="163.2" class="st5" width="0.6" height="222.3"></rect> <rect x="223.4" y="163.2" class="st5" width="0.6" height="222.3"></rect> <rect x="224" y="163.2" class="st5" width="0.6" height="222.3"></rect> <rect x="224.7" y="163.2" class="st5" width="0.6" height="222.3"></rect> <rect x="225.3" y="163.2" class="st5" width="0.6" height="222.3"></rect> <rect x="225.9" y="163.2" class="st5" width="0.6" height="222.3"></rect> <rect x="226.5" y="163.2" class="st5" width="0.6" height="222.3"></rect> <rect x="227.2" y="163.2" class="st5" width="0.6" height="222.3"></rect> <rect x="227.8" y="163.2" class="st5" width="0.6" height="222.3"></rect> <rect x="228.4" y="163.2" class="st5" width="0.6" height="222.3"></rect> <rect x="229" y="163.2" class="st5" width="0.6" height="222.3"></rect> <rect x="229.7" y="163.2" class="st5" width="0.6" height="222.3"></rect> <rect x="230.3" y="163.2" class="st5" width="0.6" height="222.3"></rect> <rect x="230.9" y="163.2" class="st5" width="0.6" height="222.3"></rect> <rect x="231.6" y="163.2" class="st5" width="0.6" height="222.3"></rect> <rect x="232.2" y="163.2" class="st5" width="0.6" height="222.3"></rect> <rect x="232.8" y="163.2" class="st5" width="0.6" height="222.3"></rect> <rect x="233.4" y="163.2" class="st5" width="0.6" height="222.3"></rect> <rect x="234.1" y="163.2" class="st5" width="0.6" height="222.3"></rect> <rect x="234.7" y="163.2" class="st5" width="0.6" height="222.3"></rect> <rect x="235.3" y="163.2" class="st5" width="0.6" height="222.3"></rect> <rect x="235.9" y="163.2" class="st5" width="0.6" height="222.3"></rect> <rect x="236.6" y="163.2" class="st5" width="0.6" height="222.3"></rect> <rect x="237.2" y="163.2" class="st5" width="0.6" height="222.3"></rect> <rect x="237.8" y="163.2" class="st5" width="0.6" height="222.3"></rect> <rect x="238.4" y="163.2" class="st5" width="0.6" height="222.3"></rect> <rect x="239.1" y="163.2" class="st5" width="0.6" height="222.3"></rect> <rect x="239.7" y="163.2" class="st5" width="4.9" height="222.3"></rect> </g> </g> <g> <g> <defs> <path id="SVGID_13_" d="M221.7,385.6c0,0-24.6-37.1-28.1-70.7c-3.5-33.7,10.5-74.1,10.5-104.4s-15.8-47.2-15.8-47.2 s42.2,23.6,47.5,52.2C241.1,244.1,244.6,331.7,221.7,385.6z"></path> </defs> <clipPath id="SVGID_14_"> <use xlink:href="#SVGID_13_" style="overflow:visible;"></use> </clipPath> </g> </g> </g> <g> <g> <g> <defs> <path id="SVGID_15_" d="M142.6,309.8c0,0,29.9,32,29.9,47.2s29.9,40.4,35.2,52.2c0,0,12.3-30.3-17.6-62.3 S142.6,309.8,142.6,309.8z"></path> </defs> <clipPath id="SVGID_16_"> <use xlink:href="#SVGID_15_" style="overflow:visible;"></use> </clipPath> </g> </g> <g> <g> <defs> <path id="SVGID_17_" d="M142.6,309.8c0,0,29.9,32,29.9,47.2s29.9,40.4,35.2,52.2c0,0,12.3-30.3-17.6-62.3 S142.6,309.8,142.6,309.8z"></path> </defs> <use xlink:href="#SVGID_17_" style="overflow:visible;fill:#BCD2FF;"></use> <clipPath id="SVGID_18_"> <use xlink:href="#SVGID_17_" style="overflow:visible;"></use> </clipPath> <path class="st6" d="M142.6,309.8v99.4V309.8z"></path> <rect x="142.6" y="309.8" class="st6" width="0.8" height="99.4"></rect> <rect x="143.4" y="309.8" class="st6" width="0.8" height="99.4"></rect> <rect x="144.2" y="309.8" class="st6" width="0.8" height="99.4"></rect> <rect x="145.1" y="309.8" class="st6" width="0.8" height="99.4"></rect> <rect x="145.9" y="309.8" class="st6" width="0.8" height="99.4"></rect> <rect x="146.7" y="309.8" class="st6" width="0.8" height="99.4"></rect> <rect x="147.5" y="309.8" class="st6" width="0.8" height="99.4"></rect> <rect x="148.4" y="309.8" class="st6" width="0.8" height="99.4"></rect> <rect x="149.2" y="309.8" class="st6" width="0.8" height="99.4"></rect> <rect x="150" y="309.8" class="st6" width="0.8" height="99.4"></rect> <rect x="150.8" y="309.8" class="st6" width="0.8" height="99.4"></rect> <rect x="151.7" y="309.8" class="st6" width="0.8" height="99.4"></rect> <rect x="152.5" y="309.8" class="st6" width="0.8" height="99.4"></rect> <rect x="153.3" y="309.8" class="st6" width="0.8" height="99.4"></rect> <rect x="154.1" y="309.8" class="st6" width="0.8" height="99.4"></rect> <rect x="155" y="309.8" class="st6" width="0.8" height="99.4"></rect> <rect x="155.8" y="309.8" class="st6" width="0.8" height="99.4"></rect> <rect x="156.6" y="309.8" class="st6" width="0.8" height="99.4"></rect> <rect x="157.4" y="309.8" class="st6" width="0.8" height="99.4"></rect> <rect x="158.3" y="309.8" class="st6" width="0.8" height="99.4"></rect> <rect x="159.1" y="309.8" class="st6" width="0.8" height="99.4"></rect> <rect x="159.9" y="309.8" class="st6" width="0.8" height="99.4"></rect> <rect x="160.7" y="309.8" class="st6" width="0.8" height="99.4"></rect> <rect x="161.5" y="309.8" class="st6" width="0.8" height="99.4"></rect> <rect x="162.4" y="309.8" class="st6" width="0.8" height="99.4"></rect> <rect x="163.2" y="309.8" class="st6" width="0.8" height="99.4"></rect> <rect x="164" y="309.8" class="st6" width="0.8" height="99.4"></rect> <rect x="164.8" y="309.8" class="st6" width="0.8" height="99.4"></rect> <rect x="165.7" y="309.8" class="st6" width="0.8" height="99.4"></rect> <rect x="166.5" y="309.8" class="st6" width="0.8" height="99.4"></rect> <rect x="167.3" y="309.8" class="st6" width="0.8" height="99.4"></rect> <rect x="168.1" y="309.8" class="st6" width="0.8" height="99.4"></rect> <rect x="169" y="309.8" class="st6" width="0.8" height="99.4"></rect> <rect x="169.8" y="309.8" class="st6" width="0.8" height="99.4"></rect> <rect x="170.6" y="309.8" class="st6" width="0.8" height="99.4"></rect> <rect x="171.4" y="309.8" class="st6" width="0.8" height="99.4"></rect> <rect x="172.3" y="309.8" class="st6" width="0.8" height="99.4"></rect> <rect x="173.1" y="309.8" class="st6" width="0.8" height="99.4"></rect> <rect x="173.9" y="309.8" class="st6" width="0.8" height="99.4"></rect> <rect x="174.7" y="309.8" class="st6" width="0.8" height="99.4"></rect> <rect x="175.6" y="309.8" class="st6" width="0.8" height="99.4"></rect> <rect x="176.4" y="309.8" class="st6" width="0.8" height="99.4"></rect> <rect x="177.2" y="309.8" class="st6" width="0.8" height="99.4"></rect> <rect x="178" y="309.8" class="st6" width="0.8" height="99.4"></rect> <rect x="178.9" y="309.8" class="st6" width="0.8" height="99.4"></rect> <rect x="179.7" y="309.8" class="st6" width="0.8" height="99.4"></rect> <rect x="180.5" y="309.8" class="st6" width="0.8" height="99.4"></rect> <rect x="181.3" y="309.8" class="st6" width="0.8" height="99.4"></rect> <rect x="182.1" y="309.8" class="st6" width="0.8" height="99.4"></rect> <rect x="183" y="309.8" class="st6" width="0.8" height="99.4"></rect> <rect x="183.8" y="309.8" class="st6" width="0.8" height="99.4"></rect> <rect x="184.6" y="309.8" class="st6" width="0.8" height="99.4"></rect> <rect x="185.4" y="309.8" class="st6" width="0.8" height="99.4"></rect> <rect x="186.3" y="309.8" class="st6" width="0.8" height="99.4"></rect> <rect x="187.1" y="309.8" class="st6" width="0.8" height="99.4"></rect> <rect x="187.9" y="309.8" class="st6" width="0.8" height="99.4"></rect> <rect x="188.7" y="309.8" class="st6" width="0.8" height="99.4"></rect> <rect x="189.6" y="309.8" class="st6" width="0.8" height="99.4"></rect> <rect x="190.4" y="309.8" class="st6" width="0.8" height="99.4"></rect> <rect x="191.2" y="309.8" class="st6" width="0.8" height="99.4"></rect> <rect x="192" y="309.8" class="st6" width="0.8" height="99.4"></rect> <rect x="192.9" y="309.8" class="st6" width="0.8" height="99.4"></rect> <rect x="193.7" y="309.8" class="st6" width="0.8" height="99.4"></rect> <rect x="194.5" y="309.8" class="st6" width="0.8" height="99.4"></rect> <rect x="195.3" y="309.8" class="st6" width="0.8" height="99.4"></rect> <rect x="196.2" y="309.8" class="st6" width="0.8" height="99.4"></rect> <rect x="197" y="309.8" class="st6" width="0.8" height="99.4"></rect> <rect x="197.8" y="309.8" class="st6" width="0.8" height="99.4"></rect> <rect x="198.6" y="309.8" class="st6" width="0.8" height="99.4"></rect> <rect x="199.5" y="309.8" class="st6" width="0.8" height="99.4"></rect> <rect x="200.3" y="309.8" class="st6" width="0.8" height="99.4"></rect> <rect x="201.1" y="309.8" class="st6" width="0.8" height="99.4"></rect> <rect x="201.9" y="309.8" class="st6" width="0.8" height="99.4"></rect> <rect x="202.7" y="309.8" class="st6" width="0.8" height="99.4"></rect> <rect x="203.6" y="309.8" class="st6" width="0.8" height="99.4"></rect> <rect x="204.4" y="309.8" class="st6" width="0.8" height="99.4"></rect> <rect x="205.2" y="309.8" class="st6" width="0.8" height="99.4"></rect> <rect x="206" y="309.8" class="st6" width="0.8" height="99.4"></rect> <rect x="206.9" y="309.8" class="st6" width="0.8" height="99.4"></rect> <rect x="207.7" y="309.8" class="st6" width="0.8" height="99.4"></rect> <rect x="208.5" y="309.8" class="st6" width="0.8" height="99.4"></rect> <rect x="209.3" y="309.8" class="st6" width="0.8" height="99.4"></rect> <rect x="210.2" y="309.8" class="st6" width="9.8" height="99.4"></rect> </g> </g> <g> <g> <defs> <path id="SVGID_19_" d="M142.6,309.8c0,0,29.9,32,29.9,47.2s29.9,40.4,35.2,52.2c0,0,12.3-30.3-17.6-62.3 S142.6,309.8,142.6,309.8z"></path> </defs> <clipPath id="SVGID_20_"> <use xlink:href="#SVGID_19_" style="overflow:visible;"></use> </clipPath> </g> </g> </g> <g> <g> <path class="st7" d="M218.1,436.5c-0.4-0.1-9.1-2-10.9-27.3c-1.7-24.9-29.5-65.1-29.8-65.5l0.6-0.4c0.3,0.4,28.2,40.8,30,65.9 c1.7,24.6,10.2,26.6,10.2,26.6L218.1,436.5z"></path> </g> </g> <g> <g> <path class="st7" d="M236.2,432.7h-0.8c0-11.7,7-38.6,7-38.8c13.4-37.3,38.7-108.5,38.7-111.1h0.8c0,3.4-37.1,106.9-38.7,111.3 C243.1,394.3,236.2,421.1,236.2,432.7z"></path> </g> </g> <g> <g> <path class="st7" d="M223.1,436.2c-0.1-0.2-5.3-15.6-1.8-50.7c3.5-34.9-5.2-187.1-5.3-188.6l0.8,0c0.1,1.5,8.8,153.7,5.3,188.7 c-3.5,34.9,1.7,50.2,1.7,50.4L223.1,436.2z"></path> </g> </g> <polygon class="st7" points="193.6,431 255.1,431 244.6,484.9 202.4,484.9 "></polygon> </g> <g> <g> <linearGradient id="SVGID_21_" gradientUnits="userSpaceOnUse" x1="825.2491" y1="445.9959" x2="964.5729" y2="481.5608" gradientTransform="matrix(0.9974 -7.148577e-02 7.148577e-02 0.9974 -203.0177 -50.4059)"> <stop offset="0" style="stop-color:#C3CBFF"></stop> <stop offset="1" style="stop-color:#86C0FF;stop-opacity:0.5"></stop> </linearGradient> <path class="st8" d="M690.4,389l14,3.7l-26.1-16.3c-8.6-10.7-13.6-23.7-16.3-37l30.2,13.4l-32.2-28c-0.6-6.6-0.6-13.1-0.4-19.3 l27.3,19.4L660,297.5c1.7-22.8,6.9-40.1,6.9-40.1c13.8,3,28.2,10.3,40.6,18.3l1.6,32.3l3.7-28.8c17.2,11.6,29.6,23.3,29.6,23.3 c0.4,0.4,0.8,0.8,1.2,1.3l-1.6,48.9l8.7-40.7c11.2,13.8,19,27.3,24.1,40.2l-4.8,30l8.9-18.5c12.9,42.9-1,75.4-1,75.4 S728.2,424.1,690.4,389z"></path> <linearGradient id="SVGID_22_" gradientUnits="userSpaceOnUse" x1="218.5787" y1="321.8332" x2="312.3055" y2="321.8332" gradientTransform="matrix(0.9841 0.1774 -0.1774 0.9841 516.7076 -18.5893)"> <stop offset="0" style="stop-color:#C3CBFF"></stop> <stop offset="1" style="stop-color:#86C0FF;stop-opacity:0.5"></stop> </linearGradient> <path class="st9" d="M684.1,284.9c0,0,36.5,74.4,73.5,120.6"></path> </g> <g> <linearGradient id="SVGID_23_" gradientUnits="userSpaceOnUse" x1="-1680.163" y1="3891.5581" x2="-1443.3097" y2="3891.5581" gradientTransform="matrix(-0.4745 0.8803 -0.8803 -0.4745 3503.7832 3536.063)"> <stop offset="0" style="stop-color:#C3CBFF"></stop> <stop offset="1" style="stop-color:#86C0FF;stop-opacity:0.5"></stop> </linearGradient> <path class="st10" d="M766.4,292.5l0,16.7l10.5-33.9c9.4-12.8,22.4-22.2,36.4-29.1l-6,37.6l21.8-44.2c7.2-2.6,14.4-4.6,21.4-6.2 L837,269.6l22.6-38c25.9-4.8,46.8-4.2,46.8-4.2c0.8,16.3-3.2,34.5-8.4,50.7l-35.5,11.4l33.2-4.4c-7.9,22.6-17.2,39.9-17.2,39.9 c-0.4,0.6-0.7,1.1-1.1,1.7l-55,12.6l48-2.3c-12,16.6-24.9,29.2-37.7,38.8l-34.9,3.5l23.2,4.5c-44.1,27.1-84.4,21.2-84.4,21.2 S738.4,345.1,766.4,292.5z"></path> <path class="st11" d="M880.7,254.7c0,0-72.2,62.7-112.8,117.6"></path> </g> <g> <linearGradient id="SVGID_24_" gradientUnits="userSpaceOnUse" x1="-2363.052" y1="2262.2292" x2="-2069.3284" y2="2262.2292" gradientTransform="matrix(7.546870e-02 0.9971 -0.9971 7.546870e-02 3192.5098 2323.3921)"> <stop offset="0" style="stop-color:#A9CAFD"></stop> <stop offset="1" style="stop-color:#79B1FD"></stop> </linearGradient> <path class="st12" d="M699.4,296.1l11.2,17.5l-11.8-42.4c1.3-19.7,8.5-38.2,18.6-54.8l18.9,43.3l-6.9-60.7 c5.8-7.5,12-14.4,18.2-20.8l10,46.9l-1.9-54.8c23.9-22.4,46.1-35.7,46.1-35.7c11.7,16.5,19.7,38.2,25.2,58.5l-29.5,35.6 l31.7-26.8c6.9,28.9,8.7,53.2,8.7,53.2c0,0.8,0,1.7,0,2.5l-49,50l48.5-34.5c-1.4,25.4-6.4,47.2-13.4,65.8l-34.1,27l27.3-10.9 c-27.9,57.8-74,78.6-74,78.6S705.4,369.8,699.4,296.1z"></path> <linearGradient id="SVGID_25_" gradientUnits="userSpaceOnUse" x1="754.3901" y1="279.4037" x2="793.483" y2="279.4037"> <stop offset="0" style="stop-color:#A9CAFD"></stop> <stop offset="1" style="stop-color:#79B1FD"></stop> </linearGradient> <path class="st13" d="M793.5,180.2c0,0-33.5,113.7-39.1,198.3"></path> </g> <path class="st14" d="M800.3,483.9H718c-4.4,0-8.2-3-9.2-7.3l-12.7-54.2c-1.4-5.9,3.1-11.6,9.2-11.6h107.8 c6.1,0,10.5,5.7,9.2,11.6l-12.7,54.2C808.5,480.9,804.7,483.9,800.3,483.9z"></path> </g> <g> <polygon class="st15" points="325.4,474.1 589.7,474.1 589.7,485.2 326.5,485.2 "></polygon> <polygon class="st16" points="463.3,412.2 458,475.9 391.1,475.9 423.7,411.5 "></polygon> <g> <g class="st17"> <g> <path class="st18" d="M592.5,415.3l-8.7,3.1c-1.6,0.6-3.4,0.9-5.3,0.9l8.7-3.1C589.1,416.2,590.9,415.9,592.5,415.3z"></path> </g> <g> <g> <path class="st16" d="M272.4,204.1l8.7-3.1c-7.4,2.6-12.3,10.7-11.5,20.3l-8.7,3.1C260.1,214.8,265,206.7,272.4,204.1z"></path> </g> </g> <g> <g> <polygon class="st16" points="587.2,416.2 578.5,419.3 296.8,419.3 305.4,416.2 "></polygon> </g> </g> <g> <g> <polygon class="st16" points="285,395.1 276.3,398.1 261,224.3 269.7,221.3 "></polygon> </g> </g> <g> <path class="st16" d="M305.4,416.2l-8.7,3.1c-10.3,0-19.4-9.5-20.5-21.1l8.7-3.1C286,406.7,295.2,416.2,305.4,416.2z"></path> </g> <g> <g> <path class="st15" d="M568.2,200.1c10.3,0,19.4,9.5,20.5,21.1L604,395.1c1,11.7-6.5,21.1-16.7,21.1H305.4 c-10.3,0-19.4-9.5-20.5-21.1l-15.3-173.8c-1-11.7,6.5-21.1,16.7-21.1H568.2z"></path> </g> </g> <g> <g> <path class="st19" d="M557.6,208.8c9.6,0,18.2,8.6,19.1,19.3L591,386.5c1,10.6-6,19.3-15.6,19.3H312.2 c-9.6,0-18.2-8.6-19.1-19.3l-14.3-158.4c-1-10.6,6-19.3,15.6-19.3H557.6z"></path> </g> </g> </g> </g> <g> <path class="st7" d="M509,250.5l58.6-1.2c3.4-0.1,6.2,2.6,6.4,6v0c0.2,3.6-2.6,6.6-6.2,6.7l-58.6,1.2c-3.1,0.1-5.8-2.2-6.4-5.2 l0,0C502.2,254.1,505.1,250.6,509,250.5z"></path> <path class="st7" d="M512.7,272.1l58.6-1.2c3.4-0.1,6.2,2.6,6.4,6v0c0.2,3.6-2.6,6.6-6.2,6.7l-58.6,1.2c-3.1,0.1-5.8-2.2-6.4-5.2 l0,0C505.9,275.7,508.8,272.2,512.7,272.1z"></path> <path class="st7" d="M419.6,317.7l70.5-1.5c4.1-0.1,7.5,3.1,7.8,7.2l0,0c0.3,4.3-3.1,8-7.4,8.1l-70.5,1.5c-3.8,0.1-7-2.6-7.7-6.3 l0,0C411.4,322,414.9,317.8,419.6,317.7z"></path> <path class="st7" d="M421.8,357.8l70.5-1.5c4.1-0.1,7.5,3.1,7.8,7.2l0,0c0.3,4.3-3.1,8-7.4,8.1l-70.5,1.5c-3.8,0.1-7-2.6-7.7-6.3 l0,0C413.6,362.2,417.1,357.9,421.8,357.8z"></path> <path class="st7" d="M506,230.5l58.6-1.2c3.4-0.1,6.2,2.6,6.4,6v0c0.2,3.6-2.6,6.6-6.2,6.7l-58.6,1.2c-3.1,0.1-5.8-2.2-6.4-5.2 l0,0C499.2,234.1,502.1,230.5,506,230.5z"></path> <path class="st7" d="M514.9,335.3l58.6-1.2c3.4-0.1,6.2,2.6,6.4,6v0c0.2,3.6-2.6,6.6-6.2,6.7l-58.6,1.2c-3.1,0.1-5.8-2.2-6.4-5.2 v0C508.2,338.9,511.1,335.3,514.9,335.3z"></path> <path class="st7" d="M518.7,356.8l58.6-1.2c3.4-0.1,6.2,2.6,6.4,6l0,0c0.2,3.6-2.6,6.6-6.2,6.7l-58.6,1.2 c-3.1,0.1-5.8-2.2-6.4-5.2l0,0C511.9,360.4,514.8,356.9,518.7,356.8z"></path> <path class="st7" d="M512,315.2l58.6-1.2c3.4-0.1,6.2,2.6,6.4,6v0c0.2,3.6-2.6,6.6-6.2,6.7l-58.6,1.2c-3.1,0.1-5.8-2.2-6.4-5.2 l0,0C505.2,318.8,508.1,315.3,512,315.2z"></path> <path class="st7" d="M332.1,357.6l58.6-1.2c3.4-0.1,6.2,2.6,6.4,6l0,0c0.2,3.6-2.6,6.6-6.2,6.7l-58.6,1.2 c-3.1,0.1-5.8-2.2-6.4-5.2l0,0C325.3,361.2,328.2,357.6,332.1,357.6z"></path> <path class="st7" d="M329.1,337.5l58.6-1.2c3.4-0.1,6.2,2.6,6.4,6l0,0c0.2,3.6-2.6,6.6-6.2,6.7l-58.6,1.2 c-3.1,0.1-5.8-2.2-6.4-5.2v0C322.3,341.1,325.2,337.6,329.1,337.5z"></path> <path class="st7" d="M405.1,237.6l4.1,40.6c0.5,5.5,5.1,9.7,10.6,9.7l67.4,0.6c4.9,0,8.8-4.2,8.4-9.1l-5.4-41 c-0.7-5.3-5.2-9.3-10.6-9.4l-66.1-0.6C408.6,228.4,404.7,232.7,405.1,237.6z"></path> <g> <g> <g> <polygon class="st20" points="420,296.5 421,307.7 419.3,307.7 418.3,296.5 "></polygon> </g> <g> <path class="st20" d="M425.7,299.5c2.2,0,4,1.7,4.2,4.1c0.2,2.4-1.2,4.2-3.4,4.2c-2.2,0-3.9-1.7-4.2-4.2 C422,301.3,423.5,299.5,425.7,299.5z M426.3,306.2c1.2,0,2-1,1.9-2.5c-0.1-1.6-1.1-2.5-2.3-2.5c-1.2,0-2,1-1.9,2.5 C424.1,305.2,425.1,306.2,426.3,306.2"></path> </g> <g> <path class="st20" d="M436.6,299.6h1.6l0.6,6.9c0.3,2.9-1,4.3-3.5,4.3c-1.3,0-2.7-0.4-3.6-1.2l0.6-1.4c0.7,0.6,1.7,1,2.7,1 c1.6,0,2.2-0.8,2.1-2.5l0-0.4c-0.5,0.7-1.3,1.1-2.3,1.1c-2,0-3.7-1.6-3.9-3.9c-0.2-2.3,1.2-3.9,3.3-3.9c1,0,1.9,0.4,2.6,1.2 L436.6,299.6z M434.9,305.8c1.3,0,2.1-0.9,2-2.3c-0.1-1.4-1.1-2.3-2.4-2.3c-1.3,0-2.1,0.9-2,2.3 C432.6,304.8,433.6,305.8,434.9,305.8"></path> </g> <g> <polygon class="st20" points="441.1,307.7 440.3,299.6 442,299.6 442.7,307.7 "></polygon> </g> <g> <path class="st20" d="M441.1,298.3c-0.6,0-1.1-0.5-1.2-1.1c-0.1-0.6,0.4-1.1,1-1.1s1.1,0.5,1.2,1.1 C442.1,297.8,441.7,298.3,441.1,298.3z"></path> </g> <g> <path class="st20" d="M448.2,299.5c1.7,0,3.1,1.1,3.3,3.6l0.4,4.6h-1.7l-0.4-4.4c-0.1-1.4-0.8-2.1-1.9-2.1 c-1.2,0-1.9,0.8-1.8,2.4l0.4,4.1h-1.7l-0.7-8.1h1.6l0.1,1C446.4,299.9,447.2,299.5,448.2,299.5z"></path> </g> </g> </g> <g> <g> <g> <path class="st20" d="M423.8,339.2c2.1,0,3.8,1.6,4,4.1c0.2,2.5-1.2,4.2-3.3,4.2c-0.9,0-1.7-0.4-2.4-1.1l0.3,3.9h-1.7l-1-11 h1.6l0.1,1.1C422,339.6,422.8,339.2,423.8,339.2z M424.2,345.9c1.2,0,2-1,1.9-2.5c-0.1-1.6-1.1-2.5-2.3-2.5 c-1.2,0-2,1-1.9,2.5C422,344.9,423,345.9,424.2,345.9"></path> </g> <g> <path class="st20" d="M431.7,339.2c2,0,3.3,1.1,3.5,3.4l0.4,4.8h-1.6l-0.1-1c-0.3,0.7-1.1,1.1-2.1,1.1c-1.6,0-2.7-1-2.9-2.4 c-0.1-1.3,0.6-2.4,2.7-2.4h1.8l0-0.1c-0.1-1.1-0.7-1.8-1.9-1.8c-0.8,0-1.6,0.3-2.1,0.8l-0.8-1.4 C429.5,339.6,430.6,339.2,431.7,339.2z M433.8,344.9l-0.1-0.9H432c-1.1,0-1.4,0.5-1.3,1.1c0.1,0.7,0.6,1.1,1.5,1.1 C432.9,346.2,433.6,345.7,433.8,344.9"></path> </g> <g> <path class="st20" d="M446.5,339.2c1,0,2,0.3,2.7,0.7l-0.5,1.4c-0.7-0.5-1.4-0.6-2.1-0.6c-1,0-1.5,0.4-1.4,0.9 c0.1,1.6,4.4,0.2,4.7,3.4c0.1,1.5-1,2.5-3,2.5c-1.2,0-2.4-0.4-3.1-0.9l0.5-1.4c0.7,0.5,1.7,0.8,2.6,0.8c1.1,0,1.5-0.3,1.4-0.9 c-0.1-1.5-4.4-0.1-4.7-3.3C443.5,340.2,444.6,339.2,446.5,339.2z"></path> </g> <g> <path class="st20" d="M439.7,339.2c1,0,2,0.3,2.7,0.7l-0.5,1.4c-0.7-0.5-1.4-0.6-2.1-0.6c-1,0-1.5,0.4-1.4,0.9 c0.1,1.6,4.4,0.2,4.7,3.4c0.1,1.5-1,2.5-3,2.5c-1.2,0-2.4-0.4-3.1-0.9l0.5-1.4c0.7,0.5,1.7,0.8,2.6,0.8c1.1,0,1.5-0.3,1.4-0.9 c-0.1-1.5-4.4-0.1-4.7-3.3C436.6,340.2,437.7,339.2,439.7,339.2z"></path> </g> <g> <path class="st20" d="M466.3,339.2c2.2,0,4,1.7,4.2,4.1c0.2,2.4-1.2,4.2-3.4,4.2c-2.2,0-3.9-1.7-4.2-4.2 C462.7,341,464.1,339.2,466.3,339.2z M466.9,345.9c1.2,0,2-1,1.9-2.5c-0.1-1.6-1.1-2.5-2.4-2.5c-1.2,0-2,1-1.9,2.5 C464.7,344.9,465.7,345.9,466.9,345.9"></path> </g> <g> <polygon class="st20" points="462,339.3 460.1,347.4 458.5,347.4 456.1,341.9 454.8,347.4 453.2,347.4 449.8,339.3 451.4,339.3 453.8,345.3 455.2,339.3 456.7,339.3 459.1,345.4 460.5,339.3 "></polygon> </g> <g> <path class="st20" d="M482.4,336.2h1.7l1,11.3h-1.6l-0.1-1c-0.5,0.8-1.3,1.2-2.3,1.2c-2.1,0-3.7-1.6-4-4.2 c-0.2-2.5,1.2-4.1,3.2-4.1c0.9,0,1.8,0.4,2.4,1.1L482.4,336.2z M481.2,345.9c1.2,0,2-1,1.9-2.5c-0.1-1.6-1.1-2.5-2.3-2.5 s-2,1-1.9,2.5C478.9,344.9,480,345.9,481.2,345.9"></path> </g> <g> <path class="st20" d="M475.9,339.2l0.2,1.8c-0.2,0-0.3,0-0.4,0c-1.3,0-2,0.9-1.8,2.5l0.3,3.9h-1.7l-0.7-8.1h1.6l0.1,1.2 C473.8,339.7,474.7,339.2,475.9,339.2z"></path> </g> </g> </g> </g> <g> <g> <g class="st17"> <g> <path class="st15" d="M375.4,181.9c-0.2-3-1.6-5.6-3.7-7.3c0.2-0.1,0.5-0.2,0.7-0.3c0.2-0.1,0.6-0.2,0.8-0.3 c0.2-0.1,0.6-0.2,0.8-0.3c0.3-0.1,0.6-0.2,0.8-0.3c0.3-0.1,0.6-0.2,0.8-0.3c0.2-0.1,0.6-0.2,0.8-0.3c0.2-0.1,0.6-0.2,0.8-0.3 c0.2-0.1,0.5-0.2,0.7-0.3c2.1,1.8,3.5,4.4,3.7,7.3C379.9,180.1,377.3,181.1,375.4,181.9z"></path> </g> <g> <path class="st15" d="M371.7,174.5C371.7,174.5,371.7,174.5,371.7,174.5c0.2-0.1,0.5-0.2,0.7-0.3c0.2-0.1,0.6-0.2,0.8-0.3 c0.2-0.1,0.6-0.2,0.8-0.3c0.3-0.1,0.6-0.2,0.8-0.3c0.3-0.1,0.6-0.2,0.8-0.3c0.2-0.1,0.6-0.2,0.8-0.3c0.2-0.1,0.6-0.2,0.8-0.3 c0.2-0.1,0.5-0.2,0.7-0.3c0,0,0,0,0,0c0,0,0,0,0,0C376,172.8,373.9,173.7,371.7,174.5C371.7,174.5,371.7,174.5,371.7,174.5z"></path> </g> <g> <path class="st15" d="M366.2,172.3c0,0,0.1,0,0.1-0.1c0,0,0.1,0,0.1-0.1c0,0,0.1,0,0.1-0.1c0,0,0.1,0,0.1-0.1 c0,0,0.1,0,0.1-0.1c0,0,0.1,0,0.1-0.1c0,0,0.1,0,0.1-0.1c0,0,0.1,0,0.1-0.1c0.2-0.1,0.4-0.2,0.6-0.3c0.2-0.1,0.5-0.2,0.7-0.3 c0.2-0.1,0.5-0.2,0.7-0.3c0.2-0.1,0.5-0.2,0.7-0.3s0.5-0.2,0.7-0.3c0.2-0.1,0.5-0.2,0.7-0.3c0.2-0.1,0.5-0.2,0.7-0.3 c0.2-0.1,0.4-0.2,0.6-0.3c2,0.1,3.9,0.9,5.5,2.3c-2.1,0.9-4.3,1.7-6.4,2.6C370.1,173.2,368.2,172.4,366.2,172.3z"></path> </g> <g> <polygon class="st15" points="372.3,169.7 365.9,172.3 367,169.2 373.4,166.6 "></polygon> </g> <g> <path class="st15" d="M366.2,172.3c-0.1,0-0.2,0-0.3,0l6.4-2.6c0.1,0,0.2,0,0.3,0c-1.8,0.7-3.6,1.4-5.3,2.1 c-0.2,0.1-0.4,0.1-0.5,0.2c-0.1,0-0.2,0.1-0.4,0.1C366.3,172.2,366.3,172.2,366.2,172.3C366.2,172.3,366.2,172.3,366.2,172.3z "></path> </g> <g> <polygon class="st15" points="372,169.7 365.6,172.3 351.9,172.3 358.4,169.7 "></polygon> </g> <g> <polygon class="st15" points="358.4,169.7 351.9,172.3 351.9,171.3 358.3,168.7 "></polygon> </g> <g> <polygon class="st19" points="358.6,173 352.2,175.5 351.9,172.3 358.4,169.7 "></polygon> </g> <g> <path class="st19" d="M357.4,175.1l-6.4,2.6c0.8-0.3,1.3-1.2,1.2-2.2l6.4-2.6C358.7,174,358.2,174.8,357.4,175.1z"></path> </g> <g> <path class="st15" d="M357.4,175.1l-6.4,2.6c-0.2,0.1-0.4,0.1-0.7,0.1l6.4-2.6C356.9,175.3,357.2,175.2,357.4,175.1z"></path> </g> <g> <path class="st15" d="M388,316.5l-6.4,2.6c4-1.6,6.7-6,6.3-11.1l6.4-2.6C394.7,310.5,392,314.8,388,316.5z"></path> </g> <g> <polygon class="st15" points="391.7,306.8 385.3,309.4 375.4,181.9 381.8,179.3 "></polygon> </g> <g> <polygon class="st15" points="331.6,168.7 325.2,171.3 325.2,171.2 331.7,168.6 "></polygon> </g> <g> <polygon class="st15" points="358.3,168.7 351.9,171.3 325.2,171.2 331.7,168.6 "></polygon> </g> <g> <polygon class="st15" points="356.7,175.3 350.3,177.8 327.8,177.8 334.2,175.3 "></polygon> </g> <g> <polygon class="st15" points="331.6,169.7 325.2,172.3 325.2,171.3 331.6,168.7 "></polygon> </g> <g> <polygon class="st15" points="331.9,173 325.5,175.5 325.2,172.3 331.6,169.7 "></polygon> </g> <g> <path class="st15" d="M388.2,313l-6.4,2.6c2.3-0.9,3.7-3.3,3.5-6.2l6.4-2.6C391.9,309.7,390.4,312.1,388.2,313z"></path> </g> <g> <path class="st15" d="M334.2,175.3l-6.4,2.6c-1.2,0-2.2-1-2.3-2.3l6.4-2.6C332,174.2,333,175.3,334.2,175.3z"></path> </g> <g> <polygon class="st15" points="331.6,169.7 325.2,172.3 308.9,172.3 315.3,169.7 "></polygon> </g> <g> <path class="st15" d="M306.9,172.7l6.4-2.6c0.6-0.2,1.3-0.4,2-0.4l-6.4,2.6C308.2,172.3,307.5,172.4,306.9,172.7z"></path> </g> <g> <path class="st19" d="M306.9,172.7l6.4-2.6c-2.2,0.9-3.7,3.3-3.5,6.2l-6.4,2.6C303.2,176,304.7,173.6,306.9,172.7z"></path> </g> <g> <path class="st19" d="M350.1,300.8c2.1-0.9,4.3-1.7,6.4-2.6c0.2,0.1,0.4,0.1,0.7,0.2c-2.1,0.9-4.3,1.7-6.4,2.6 C350.5,301,350.3,300.9,350.1,300.8z"></path> </g> <g> <path class="st19" d="M350.1,300.8c-0.5-0.1-0.9-0.2-1.4-0.2c0.2-0.1,0.5-0.2,0.7-0.3c0.2-0.1,0.6-0.2,0.8-0.3 c0.2-0.1,0.6-0.2,0.8-0.3c0.3-0.1,0.6-0.2,0.8-0.3s0.6-0.2,0.8-0.3c0.2-0.1,0.6-0.2,0.8-0.3c0.2-0.1,0.6-0.2,0.8-0.3 c0.2-0.1,0.5-0.2,0.7-0.3c0.5,0,1,0.1,1.4,0.2c-1.4,0.6-2.9,1.2-4.3,1.7c-0.4,0.1-0.7,0.3-1.1,0.4c-0.1,0.1-0.3,0.1-0.4,0.2 c-0.1,0-0.2,0.1-0.3,0.1c0,0-0.1,0-0.1,0.1C350.2,300.8,350.1,300.8,350.1,300.8z"></path> </g> <g> <path class="st19" d="M348.6,300.6c-0.6,0-1.2,0.1-1.7,0.3l6.4-2.6c0.5-0.2,1.1-0.3,1.7-0.3c0,0,0,0,0,0 C352.9,298.9,350.8,299.8,348.6,300.6C348.6,300.6,348.6,300.6,348.6,300.6z"></path> </g> <g> <path class="st19" d="M354.4,306.4c-0.2-2.4-1.7-4.5-3.6-5.3c0.2-0.1,0.5-0.2,0.7-0.3c0.2-0.1,0.6-0.2,0.8-0.3 c0.2-0.1,0.6-0.2,0.8-0.3c0.3-0.1,0.6-0.2,0.8-0.3c0.3-0.1,0.6-0.2,0.8-0.3c0.2-0.1,0.6-0.2,0.8-0.3c0.2-0.1,0.6-0.2,0.8-0.3 c0.2-0.1,0.5-0.2,0.7-0.3c2,0.9,3.5,2.9,3.6,5.3c0.2,2.5-1.1,4.7-3.1,5.5l-6.4,2.6C353.3,311.1,354.6,308.9,354.4,306.4z"></path> </g> <g> <path class="st15" d="M357.7,309.3l-6.4,2.6c-0.5,0.2-1.1,0.3-1.7,0.3c-2.9,0-5.5-2.6-5.7-5.8c-0.2-2.5,1.1-4.7,3.1-5.5 l6.4-2.6c-2,0.8-3.3,2.9-3.1,5.5c0.2,3.2,2.8,5.8,5.7,5.8C356.6,309.6,357.2,309.5,357.7,309.3z"></path> </g> <g> <path class="st19" d="M378.1,171.9c2.1,1.8,3.5,4.4,3.7,7.4l9.9,127.5c0.3,3.6-2.2,6.6-5.5,6.6h-59.8c-3.3,0-6.2-2.9-6.5-6.6 l-1.6-20.5l-8.5-110.1c-0.3-3.6,2.2-6.6,5.5-6.6h16.3l0.3,3.3c0.1,1.3,1.1,2.3,2.3,2.3h22.5c1.2,0,2-1,1.9-2.3l-0.3-3.3H372 C374.5,169.7,376.5,170.5,378.1,171.9z M355.9,309.6c2.9,0,5.1-2.6,4.8-5.8c-0.2-3.2-2.8-5.8-5.7-5.8c-2.9,0-5.1,2.6-4.8,5.8 C350.5,307,353,309.6,355.9,309.6"></path> </g> <g> <path class="st15" d="M358.2,168.6l0.1,0.1l0.1,1l0.3,3.3c0.1,1.3-0.8,2.3-1.9,2.3h-22.5c-1.2,0-2.2-1-2.3-2.3l-0.3-3.3 l-0.1-1l0.1-0.1H358.2z"></path> </g> <g> <path class="st19" d="M388.2,313l-6.4,2.6c-0.6,0.2-1.3,0.4-2,0.4l6.4-2.6C386.9,313.4,387.6,313.2,388.2,313z"></path> </g> <g> <polygon class="st15" points="387.2,316.7 380.8,319.3 363.5,319.7 369.9,317.1 "></polygon> </g> <g> <path class="st15" d="M388,316.5l-6.4,2.6c-0.3,0.1-0.5,0.2-0.8,0.3c-0.9,0.3-1.8,0.4-2.8,0.4l6.4-2.6c1,0,1.9-0.1,2.8-0.4 C387.5,316.6,387.7,316.6,388,316.5z"></path> </g> <g> <path class="st16" d="M388,316.5l-6.4,2.6c-0.3,0.1-0.5,0.2-0.8,0.3l6.4-2.6C387.5,316.6,387.7,316.6,388,316.5z"></path> </g> <g> <polygon class="st19" points="318.4,286.3 311.9,288.9 303.4,178.8 309.9,176.3 "></polygon> </g> <g> <path class="st16" d="M307,169.8l6.4-2.6c-4,1.6-6.7,6-6.3,11.1l-6.4,2.6C300.3,175.8,303,171.4,307,169.8z"></path> </g> <g> <path class="st15" d="M355.1,298.1c2.9,0,5.5,2.6,5.7,5.8c0.2,3.2-1.9,5.8-4.8,5.8s-5.5-2.6-5.7-5.8 C350,300.6,352.1,298.1,355.1,298.1z"></path> </g> <g> <polygon class="st15" points="369.9,317.1 363.5,319.7 322.2,319.7 328.6,317.1 "></polygon> </g> <g> <polygon class="st16" points="384.4,317.1 378,319.7 322.2,319.7 328.6,317.1 "></polygon> </g> <g> <polygon class="st19" points="386.2,313.4 379.8,316 320,316 326.4,313.4 "></polygon> </g> <g> <polygon class="st19" points="319.9,306.8 313.5,309.4 311.9,288.9 318.4,286.3 "></polygon> </g> <g> <polygon class="st15" points="315.9,291.7 309.5,294.3 311.9,288.9 318.4,286.3 "></polygon> </g> <g> <path class="st19" d="M326.4,313.4L320,316c-3.3,0-6.2-2.9-6.5-6.6l6.4-2.6C320.2,310.4,323.1,313.4,326.4,313.4z"></path> </g> <g> <polygon class="st15" points="317,305.4 310.5,308 309.5,294.3 315.9,291.7 "></polygon> </g> <g> <polygon class="st16" points="317,305.4 310.5,308 300.7,180.9 307.1,178.3 "></polygon> </g> <g> <path class="st15" d="M373.4,166.6c5.7,0.3,10.5,5.5,11,11.7l9.8,127c0.4,5.4-2.6,10-7.1,11.4l-17.3,0.4h-41.3 c-5.9,0-11.2-5.3-11.7-11.8l-1.1-13.7l2.5-5.3l1.6,20.5c0.3,3.6,3.2,6.6,6.5,6.6h59.8c3.3,0,5.8-2.9,5.5-6.6l-9.9-127.5 c-0.2-3-1.6-5.6-3.7-7.4c-1.6-1.4-3.7-2.3-5.8-2.3L373.4,166.6z"></path> </g> <g> <path class="st15" d="M328.6,317.1l-6.4,2.6c-5.9,0-11.2-5.3-11.7-11.8l6.4-2.6C317.5,311.9,322.7,317.1,328.6,317.1z"></path> </g> <g> <path class="st15" d="M372.8,166.6c0.2,0,0.4,0,0.6,0l-1.4,3.1h-13.6l-0.1-1l-26.6-0.1l0,1.1h-16.3c-3.3,0-5.8,2.9-5.5,6.6 l8.5,110.1l-2.5,5.3l1.1,13.7c0.5,6.5,5.7,11.8,11.7,11.8h41.3l17.3-0.4c4.5-1.4,7.5-5.9,7.1-11.4c0.4,5.4-2.6,10-7.1,11.4 c-0.9,0.3-1.8,0.4-2.8,0.4h-55.8c-5.9,0-11.2-5.3-11.7-11.8l-9.8-127c-0.5-6.5,3.9-11.8,9.8-11.8H372.8z"></path> </g> <g> <path class="st16" d="M328.6,317.1l-6.4,2.6c-5.9,0-11.2-5.3-11.7-11.8l6.4-2.6C317.5,311.9,322.7,317.1,328.6,317.1z"></path> </g> </g> </g> <g> <g> <g> <path class="st20" d="M332.1,190.5c1.6,0,3.3,0.5,4.5,1.3l-0.6,2.2c-1.3-0.8-2.6-1.2-3.8-1.2c-2,0-2.8,0.9-2.7,2 c0.3,3.2,8,1.1,8.5,6.7c0.2,2.4-1.3,4.5-5,4.5c-2.1,0-4.2-0.7-5.4-1.8l0.7-2.2c1.1,1,2.9,1.7,4.5,1.7c2.1,0,2.9-0.8,2.8-2 c-0.3-3.3-8-1.1-8.5-6.7C327,192.5,328.5,190.5,332.1,190.5z"></path> </g> <g> <polygon class="st20" points="354,190.7 355.4,205.8 353.1,205.8 352.2,195.8 348.5,204 347.4,204 342.4,195.9 343.2,205.8 340.9,205.8 339.5,190.7 341.6,190.7 347.7,200.7 352,190.7 "></polygon> </g> <g> <path class="st20" d="M362.1,190.5c1.6,0,3.3,0.5,4.5,1.3l-0.6,2.2c-1.3-0.8-2.6-1.2-3.8-1.2c-2,0-2.8,0.9-2.7,2 c0.3,3.2,8,1.1,8.5,6.7c0.2,2.4-1.3,4.5-5,4.5c-2.1,0-4.2-0.7-5.4-1.8l0.7-2.2c1.2,1,2.9,1.7,4.5,1.7c2.1,0,2.9-0.8,2.8-2 c-0.3-3.3-8-1.1-8.5-6.7C357,192.5,358.5,190.5,362.1,190.5z"></path> </g> <g> <path class="st20" d="M331.6,220c2,0,3.6,0.9,4.6,2.7l-1.7,1.2c-0.7-1.1-1.7-1.6-2.7-1.6c-1.7,0-2.9,1.4-2.8,3.6 c0.2,2.2,1.6,3.6,3.4,3.6c1,0,1.9-0.5,2.4-1.6l1.9,1.2c-0.6,1.7-2.1,2.7-4.1,2.7c-3.2,0-5.7-2.5-6-5.9 C326.3,222.4,328.4,220,331.6,220z"></path> </g> <g> <path class="st20" d="M342.5,220c3.1,0,5.6,2.4,5.9,5.9c0.3,3.4-1.7,5.9-4.9,5.9c-3.1,0-5.6-2.5-5.9-5.9 C337.3,222.4,339.4,220,342.5,220z M343.3,229.5c1.7,0,2.9-1.4,2.7-3.6s-1.6-3.6-3.3-3.6c-1.7,0-2.9,1.4-2.7,3.6 C340.2,228.1,341.6,229.5,343.3,229.5"></path> </g> <g> <path class="st20" d="M357.3,215.6h2.4l1.4,16h-2.3l-0.1-1.5c-0.7,1.1-1.8,1.6-3.2,1.6c-2.9,0-5.3-2.3-5.6-5.9 c-0.3-3.6,1.7-5.9,4.6-5.9c1.3,0,2.5,0.5,3.4,1.6L357.3,215.6z M355.6,229.5c1.7,0,2.9-1.4,2.7-3.6s-1.6-3.6-3.3-3.6 c-1.7,0-2.9,1.4-2.7,3.6C352.4,228.1,353.9,229.5,355.6,229.5"></path> </g> <g> <path class="st20" d="M373.2,225.9c0,0.2,0,0.5,0,0.8h-7.9c0.4,1.7,1.8,2.8,3.5,2.8c1.1,0,2-0.4,2.6-1.2l1.4,1.7 c-0.8,1.2-2.2,1.9-3.9,1.9c-3.4,0-5.8-2.5-6.1-5.9c-0.3-3.4,1.7-5.9,4.7-5.9C370.5,220,372.9,222.3,373.2,225.9z M365.1,225 h5.7c-0.3-1.7-1.6-2.8-3.1-2.8C366.2,222.2,365.2,223.3,365.1,225"></path> </g> </g> </g> <g> <g> <g> <polygon class="st21" points="334.4,252.8 337.2,258 342.3,258.8 339,262.9 340.4,268.7 335.6,266 331.3,268.7 331.6,262.9 327.6,258.8 332.6,258 "></polygon> </g> <g> <polygon class="st21" points="355.9,252.8 358.7,258 363.8,258.8 360.5,262.9 361.9,268.7 357.1,266 352.8,268.7 353.1,262.9 349.1,258.8 354.1,258 "></polygon> </g> <g> <polygon class="st21" points="377.4,252.8 380.2,258 385.3,258.8 382,262.9 383.4,268.7 378.6,266 374.3,268.7 374.7,262.9 370.6,258.8 375.6,258 "></polygon> </g> <g> <path class="st22" d="M380.4,245.7c6.4,0,12.2,5.9,12.8,13.3l0.3,3.5c0.6,7.3-4.1,13.3-10.5,13.3l-50.2,0 c-6.4,0-12.2-5.9-12.8-13.3l-0.3-3.5c-0.6-7.3,4.1-13.3,10.5-13.3H380.4z M383.4,268.7l-1.4-5.8l3.3-4.1l-5.2-0.8l-2.7-5.2 l-1.8,5.2l-5,0.8l4,4.1l-0.4,5.8l4.3-2.7L383.4,268.7 M340.4,268.7l-1.4-5.8l3.3-4.1l-5.2-0.8l-2.7-5.2l-1.8,5.2l-5,0.8l4,4.1 l-0.4,5.8l4.3-2.7L340.4,268.7 M361.9,268.7l-1.4-5.8l3.3-4.1l-5.2-0.8l-2.7-5.2l-1.8,5.2l-5,0.8l4,4.1l-0.4,5.8l4.3-2.7 L361.9,268.7"></path> </g> </g> </g> </g> </g> </g> <g id="man"> <rect x="184.2" y="484.8" class="st23" width="707.6" height="23"></rect> <g> <path class="st24" d="M625.4,357.4l0.1-16.1c0,0-29.7,2-35.8-12.8c-6.1-14.9-7.4-73.6-7.4-73.6s72.9-7.4,76.3,22.3 c3.4,29.7,15.8,70.5,15.8,70.5L625.4,357.4z"></path> <linearGradient id="SVGID_26_" gradientUnits="userSpaceOnUse" x1="564.5622" y1="276.2874" x2="688.2125" y2="276.2874"> <stop offset="0" style="stop-color:#007DFF"></stop> <stop offset="1" style="stop-color:#3647D2"></stop> </linearGradient> <path class="st25" d="M585,253c0,0-7.7,16.9,5.3,30s39.9-0.3,44.7,17.9c4.7,18.2,18.9,40.5,32.4,35.8c5.4-1.9,7.2-6,7.5-10.4 c0.7-11.5,2.6-22.8,6.5-33.6c4.9-13.6,9.1-32.4,5.6-51.2c-6.8-35.8-77.6-25.7-93.8-22.3c-16.2,3.4-38.5,28.4-23.6,44.6 c14.9,16.2,20.9,18.9,20.9,18.9L585,253z"></path> <path class="st24" d="M457.6,462.9L429,463c0,0-39.2,14.2-38.5,21.6c0.7,7.4,40.5-6.8,40.5-4.7s-8.8,8.1-8.8,8.1s27,0.7,30.4-0.7 s7.4-4.1,7.4-4.1L457.6,462.9z"></path> <linearGradient id="SVGID_27_" gradientUnits="userSpaceOnUse" x1="445.9864" y1="471.7206" x2="745.2604" y2="471.7206"> <stop offset="0" style="stop-color:#FFCD4F"></stop> <stop offset="1" style="stop-color:#FFAB00"></stop> </linearGradient> <path class="st26" d="M676.1,344.8c0,0-53.3,8.3-74.1,24.1l0,0c0,0-0.1,0.1-0.4,0.3c-2,1.5-3.6,3.1-4.9,4.7 c-9.2,9.5-29.5,32.8-52.2,74.8l-87.1,11.5c0,0-19.6,16.2-7.4,30.4s113.4,11.5,121.5,6.8c3.4-2,13-9.9,23-18.5 c1.8,6.2,4,11.9,6.7,16.5c16.9,29,0.7,72.9,0.7,72.9s102.6,52.7,126.2,19.6C751.7,554.7,763.9,354.2,676.1,344.8z"></path> <linearGradient id="SVGID_28_" gradientUnits="userSpaceOnUse" x1="785.733" y1="743.7293" x2="886.6042" y2="743.7293" gradientTransform="matrix(0.995 -0.1003 0.1003 0.995 -335.4479 30.905)"> <stop offset="0" style="stop-color:#007DFF"></stop> <stop offset="1" style="stop-color:#3647D2"></stop> </linearGradient> <path class="st27" d="M611,727.5l1.3-134.8l-59.6,23l17.8,115.1l2.3-0.2c-3,3.1-13.6,13-30.6,17.2c-19.8,4.9-16.3,18.5-6.1,25.5 c10.1,6.9,74.9,2.6,78.6-4.3c3-5.7-2.1-32.3-4-41.4L611,727.5z"></path> <linearGradient id="SVGID_29_" gradientUnits="userSpaceOnUse" x1="427.1204" y1="668.0789" x2="726.1473" y2="668.0789"> <stop offset="0" style="stop-color:#007DFF"></stop> <stop offset="1" style="stop-color:#3647D2"></stop> </linearGradient> <path class="st28" d="M598.8,564.3c0,0-140.1-18.2-158.9,10.4C421.1,603.2,481,730.5,481,730.5s-13.8,12-36.7,14.9 c-22.3,2.9-19.9,16.8-9.6,24.7c10.4,7.9,82.1,10.1,86.9,3.6c4.8-6.5,0-40.3,0-40.3l0,0l-21.5-97.2c0,0,166.8,30.5,192.1,15 c25.3-15.6,33.9-82.1,33.9-82.1L598.8,564.3z"></path> </g> <linearGradient id="SVGID_30_" gradientUnits="userSpaceOnUse" x1="686.7606" y1="652.8383" x2="707.2574" y2="652.8383"> <stop offset="0" style="stop-color:#80B4FF"></stop> <stop offset="1" style="stop-color:#5B91FF"></stop> <stop offset="1" style="stop-color:#47A6FF"></stop> </linearGradient> <line class="st29" x1="686.8" y1="653.7" x2="707.3" y2="652"></line> <g> <linearGradient id="SVGID_31_" gradientUnits="userSpaceOnUse" x1="583.7086" y1="705.2281" x2="652.8551" y2="705.2281"> <stop offset="0" style="stop-color:#80B4FF"></stop> <stop offset="1" style="stop-color:#5B91FF"></stop> <stop offset="1" style="stop-color:#47A6FF"></stop> </linearGradient> <polygon class="st30" points="634.2,632.2 583.7,777.7 599.9,778.3 652.9,633.6 "></polygon> <linearGradient id="SVGID_32_" gradientUnits="userSpaceOnUse" x1="-113.6066" y1="699.5089" x2="-44.4601" y2="699.5089" gradientTransform="matrix(-1 0 0 1 663.7197 0)"> <stop offset="0" style="stop-color:#80B4FF"></stop> <stop offset="1" style="stop-color:#5B91FF"></stop> <stop offset="1" style="stop-color:#47A6FF"></stop> </linearGradient> <polygon class="st31" points="726.8,626.4 777.3,772 761.1,772.6 708.2,627.9 "></polygon> <linearGradient id="SVGID_33_" gradientUnits="userSpaceOnUse" x1="584.922" y1="570.4139" x2="772.3146" y2="570.4139"> <stop offset="0" style="stop-color:#80B4FF"></stop> <stop offset="1" style="stop-color:#5B91FF"></stop> <stop offset="1" style="stop-color:#47A6FF"></stop> </linearGradient> <path class="st32" d="M590,645.3c-7.2,2.2-6.6,12.5,0.8,13.8c39.7,7,107.7,15.6,140.5-0.3c47.8-23.2,50-147.9,26.1-176.9 c-23.9-29-105.8,17.4-108,66C647.4,591.6,666.6,621.8,590,645.3z"></path> </g> </g> </svg> 